

<svg xmlns="http://www.w3.org/2000/svg" aria-hidden="true" overflow="hidden" style="position:absolute;width:0;height:0">
  <defs>
    <symbol id="icon-youtube" viewBox="0 0 32 32">
      <path d="M28.8 9.6a3.3 3.3 0 0 0-2.36-2.35C24.35 6.68 16 6.67 16 6.67s-8.35-.01-10.44.54a3.4 3.4 0 0 0-2.35 2.37C2.65 11.66 2.65 16 2.65 16s0 4.35.54 6.41a3.3 3.3 0 0 0 2.35 2.36c2.11.57 10.44.58 10.44.58s8.35.01 10.44-.54a3.4 3.4 0 0 0 2.36-2.35c.55-2.08.55-6.41.55-6.41s.03-4.35-.54-6.44zM13.32 20v-8l6.95 4.01z"/>
    </symbol>
    <symbol id="icon-linkedin" viewBox="0 0 32 32">
      <path d="M25.75 4H6.25A2.26 2.26 0 0 0 4 6.25v19.5A2.26 2.26 0 0 0 6.25 28h19.5A2.26 2.26 0 0 0 28 25.75V6.25A2.26 2.26 0 0 0 25.75 4M13 23.5h-3V13h3zm-1.5-12a1.5 1.5 0 1 1 0-3 1.5 1.5 0 0 1 0 3m12 12h-3v-6a1.5 1.5 0 1 0-3 0v6h-3V13h3v1.86c.62-.85 1.57-1.86 2.63-1.86 1.86 0 3.37 1.68 3.37 3.75z"/>
    </symbol>
    <symbol id="icon-instagram" viewBox="0 0 32 32">
      <path d="M16 6.16c3.2 0 3.58.01 4.84.07a7 7 0 0 1 2.23.41c.56.22.96.48 1.38.9s.68.82.9 1.38c.16.42.36 1.06.41 2.22.06 1.27.07 1.65.07 4.85s-.01 3.59-.07 4.85a7 7 0 0 1-.41 2.22c-.22.56-.48.97-.9 1.38-.42.42-.82.68-1.37.9a7 7 0 0 1-2.23.41c-1.27.06-1.65.07-4.85.07s-3.58-.01-4.85-.07a7 7 0 0 1-2.22-.4 4 4 0 0 1-1.38-.9 4 4 0 0 1-.9-1.38 7 7 0 0 1-.41-2.23c-.06-1.26-.07-1.64-.07-4.84s.01-3.59.07-4.85c.05-1.17.25-1.8.41-2.23.22-.56.48-.96.9-1.38s.82-.67 1.37-.9a7 7 0 0 1 2.23-.4c1.26-.06 1.64-.08 4.85-.08M16 4c-3.26 0-3.67.02-4.95.07a9 9 0 0 0-2.9.56c-.8.3-1.47.72-2.13 1.39a6 6 0 0 0-1.4 2.12 9 9 0 0 0-.55 2.91C4.01 12.34 4 12.75 4 16s.01 3.66.07 4.94.26 2.16.56 2.91c.3.8.72 1.47 1.39 2.13a6 6 0 0 0 2.12 1.38c.76.3 1.63.5 2.9.56 1.29.06 1.7.07 4.95.07s3.67-.01 4.95-.07a9 9 0 0 0 2.9-.56 5.99 5.99 0 0 0 3.5-3.5c.31-.77.52-1.64.57-2.91.06-1.28.07-1.69.07-4.95s-.01-3.66-.07-4.94a9 9 0 0 0-.55-2.91c-.3-.8-.7-1.47-1.38-2.14a6 6 0 0 0-2.12-1.38 9 9 0 0 0-2.91-.56C19.66 4.01 19.25 4 16 4z"/>
      <path d="M16 9.84a6.16 6.16 0 1 0 0 12.33 6.16 6.16 0 0 0 0-12.33M16 20a4 4 0 1 1 0-8 4 4 0 0 1 0 8"/>
      <path d="M23.84 9.6a1.44 1.44 0 1 1-2.88 0 1.44 1.44 0 0 1 2.88 0"/>
    </symbol>
    <symbol id="icon-close" viewBox="0 0 32 32">
      <path d="m21.6 8.46-5.67 5.65-5.65-5.65-1.89 1.88L14.05 16l-5.66 5.66 1.89 1.88 5.65-5.65 5.66 5.65 1.89-1.88L17.82 16l5.66-5.66z"/>
    </symbol>
    <symbol id="icon-star" viewBox="0 0 32 32">
      <path d="M8.69 19.1 6.7 27.7A1.33 1.33 0 0 0 8 29.34q.41 0 .75-.23L16 24.27l7.26 4.84a1.33 1.33 0 0 0 2.02-1.48l-2.44-8.53 6.05-5.44a1.33 1.33 0 0 0-.78-2.32l-7.6-.6-3.3-7.29a1.33 1.33 0 0 0-1.93-.57q-.33.22-.5.57l-3.28 7.28-7.6.6a1.33 1.33 0 0 0-.83 2.3zm3.8-5.77a1.3 1.3 0 0 0 1.11-.78L16 7.24l2.4 5.3q.15.34.45.55s.42.22.66.24l5.3.42-4.36 3.92c-.38.34-.53.87-.4 1.36l1.68 5.85-4.99-3.32a1.3 1.3 0 0 0-1.47 0l-5.2 3.47 1.4-6.06a1.3 1.3 0 0 0-.38-1.26l-4.05-3.95z"/>
    </symbol>
    <symbol id="icon-star-filled" viewBox="0 0 32 32">
      <path d="M8.69 19.1 6.7 27.7A1.33 1.33 0 0 0 8 29.34q.41 0 .75-.23L16 24.27l7.26 4.84a1.33 1.33 0 0 0 2.02-1.48l-2.44-8.53 6.05-5.44a1.33 1.33 0 0 0-.78-2.32l-7.6-.6-3.3-7.29a1.33 1.33 0 0 0-1.93-.57q-.33.22-.5.57l-3.28 7.28-7.6.6a1.33 1.33 0 0 0-.83 2.3z"/>
    </symbol>
    <symbol id="icon-burger" viewBox="0 0 32 32">
      <path d="M5.33 8h21.34v2.67H5.33zm0 6.67h21.34v2.66H5.33zm0 6.66h21.34V24H5.33z"/>
    </symbol>
  </defs>
</svg>
