<svg viewBox="0 0 280 121" fill="none" xmlns="http://www.w3.org/2000/svg">
<path d="M47.8884 9.05573C47.3515 9.05617 46.7856 9.05664 46.2552 9.11993C40.0886 9.63434 34.4219 12.2539 30.3863 17.0261C25.9946 22.2195 24.9325 27.6912 24.984 34.3028L13.2356 34.2848C12.7093 34.2844 12.1653 34.2693 11.6137 34.254C10.0809 34.2116 8.48874 34.1675 7.05287 34.4306C6.18694 34.5893 5.43134 35.0105 4.82237 35.6444C3.75617 36.7543 3.73026 38.1563 3.79955 39.5926C3.90882 41.8572 4.10332 44.1248 4.29759 46.3898C4.40328 47.6219 4.50899 48.8544 4.60084 50.0849L6.5508 75.2808L7.49957 87.4483C7.54631 88.049 7.58364 88.6556 7.62112 89.2647C7.75511 91.4422 7.89107 93.6516 8.46594 95.7349C9.45907 99.2771 11.4274 102.469 14.1465 104.948C16.5229 107.106 19.3952 108.645 22.5089 109.428C25.1424 110.064 28.2021 109.992 31.0761 109.924C31.9315 109.904 32.7704 109.885 33.5768 109.884L49.3929 109.879L63.206 109.885C63.9607 109.885 64.7375 109.904 65.5238 109.922C68.0753 109.983 70.7347 110.046 73.1189 109.491C76.4729 108.71 79.8672 106.868 82.3158 104.441C84.5946 102.18 86.4152 99.1622 87.2106 96.0441C87.8194 93.6586 87.9721 91.0419 88.1203 88.5039C88.168 87.6857 88.2153 86.8751 88.2773 86.0835L89.5737 69.3961L91.1902 48.9065C91.2685 47.8945 91.3697 46.8717 91.4711 45.8467C91.6909 43.625 91.9124 41.3866 91.9074 39.1911C91.905 37.8405 91.6191 36.5807 90.6514 35.5778C89.9854 34.8867 88.8968 34.5492 87.9755 34.3989C86.5946 34.1738 85.0803 34.2139 83.6154 34.2528C83.0738 34.2672 82.539 34.2813 82.0201 34.2819C78.3253 34.2747 74.6291 34.2877 70.9342 34.3209L70.7754 34.3232C70.8621 27.2428 69.286 21.1671 64.1957 15.9887C59.9424 11.5817 54.0897 9.08132 47.9658 9.05566L47.8884 9.05573ZM70.2805 49.4423L70.4797 49.4538C70.4849 49.4673 70.4899 49.4799 70.4946 49.4916C70.4971 49.4977 70.4995 49.5036 70.5019 49.5093C70.5106 49.5304 70.5184 49.5486 70.5253 49.5645L70.5337 49.5836C70.5701 49.6664 70.5768 49.6815 70.575 49.8147C70.5115 58.4967 68.1875 69.6747 62.0257 76.0331C56.3196 81.9213 47.4587 84.8107 39.3781 84.9707C43.1419 77.8917 49.1901 71.1782 55.4289 66.192C56.3937 65.4215 57.4037 64.7251 58.4144 64.0282C59.0651 63.5795 59.716 63.1306 60.3554 62.6617C60.9761 62.2062 61.8118 61.5882 61.8998 60.7576C61.9805 59.9925 61.5736 59.3988 61.0946 58.8524C60.4238 58.4635 59.9326 58.3013 59.1665 58.5261C58.0789 58.8453 56.9829 59.65 55.9938 60.3762C55.7318 60.5686 55.477 60.7557 55.2322 60.9265C47.2327 66.5911 40.5856 73.9549 35.7672 82.4904C35.6047 75.5461 37.1861 69.7288 41.445 64.1429C47.8363 55.7602 60.0695 50.8335 70.2805 49.4423ZM8.18221 38.6338L87.5478 38.6325C87.2661 41.3055 87.0837 44.003 86.9015 46.6961C86.8001 48.1966 86.6986 49.6969 86.5801 51.1905L84.4431 77.9699L83.644 87.8381C83.6084 88.2666 83.5759 88.6972 83.5434 89.1288C83.4152 90.8312 83.2858 92.5494 82.9573 94.2162C82.6201 95.9268 81.9651 97.4138 81.0781 98.9056C80.736 99.4249 80.3645 99.9247 79.9662 100.402C77.6654 103.152 73.8887 105.199 70.3013 105.471C68.3478 105.618 66.3379 105.581 64.3469 105.545C63.4852 105.529 62.6267 105.513 61.7776 105.512L45.3119 105.507L32.2092 105.513C31.5772 105.514 30.934 105.527 30.286 105.54C28.2988 105.582 26.2641 105.624 24.3542 105.295C21.8492 104.857 19.5081 103.754 17.5777 102.1C15.2653 100.149 13.6058 97.5384 12.8228 94.6169C12.2872 92.6805 12.1536 90.6172 12.0225 88.5913C11.9896 88.0825 11.9568 87.576 11.9178 87.0744L11.1385 77.0337L8.18221 38.6338ZM72.0429 44.7893L71.9838 44.7956C59.9363 46.1892 46.221 51.1445 38.4337 60.9036C33.4285 67.1757 30.694 75.3339 31.5972 83.3675C31.7955 85.1317 32.195 86.8178 32.7709 88.4954C32.7057 88.662 32.6263 88.8618 32.5358 89.0891C31.5471 91.5741 29.2489 97.3501 30.0482 99.0584C30.2794 99.552 30.7503 99.8831 31.2609 100.046C31.4713 100.112 31.6832 100.149 31.9022 100.175C32.5771 100.064 33.201 99.9247 33.6073 99.3211C34.0435 98.6715 34.4902 97.1116 34.8723 95.7774C35.0543 95.1418 35.2218 94.5573 35.3665 94.1465C35.8615 92.7404 36.4235 91.3575 36.9848 89.9764L36.9913 89.9603C37.057 89.7987 37.1227 89.637 37.1883 89.4754C47.1227 89.5047 57.7333 86.3951 64.9203 79.3039C72.9577 71.372 74.9823 58.5818 74.9982 47.758C74.9994 46.9045 74.9407 45.8918 74.3164 45.2391C73.9327 44.8376 73.3548 44.7167 72.8184 44.7285C72.5595 44.7342 72.3007 44.7618 72.0429 44.7893ZM46.9224 13.3966C47.3073 13.3727 47.6934 13.3512 48.0782 13.3539C52.7971 13.387 57.522 15.4975 60.8381 18.8232C65.3529 23.3515 66.2766 28.1568 66.2864 34.3031L48.9971 34.2937L29.5421 34.3179C29.3932 29.0347 30.2441 24.2093 33.7102 20.0376C37.0399 16.03 41.792 13.8549 46.9224 13.3966Z" fill="#030A06"/>
<path d="M70.4796 49.4536L70.2805 49.4421C60.0694 50.8333 47.8362 55.76 41.4449 64.1428C37.186 69.7286 35.6047 75.5459 35.7672 82.4902C40.5856 73.9548 47.2326 66.5909 55.2321 60.9263C55.477 60.7555 55.7318 60.5684 55.9938 60.376C56.9829 59.6498 58.0789 58.8451 59.1665 58.5259C59.9326 58.3011 60.4238 58.4633 61.0946 58.8522C61.5735 59.3987 61.9804 59.9924 61.8998 60.7574C61.8118 61.588 60.976 62.206 60.3553 62.6615C59.716 63.1304 59.065 63.5793 58.4143 64.028C57.4036 64.7249 56.3936 65.4213 55.4288 66.1918C49.19 71.178 43.1418 77.8915 39.378 84.9705C47.4587 84.8105 56.3196 81.9211 62.0256 76.0329C68.1875 69.6745 70.5114 58.4966 70.575 49.8145C70.5767 49.6813 70.5701 49.6662 70.5336 49.5834C70.5249 49.5635 70.5142 49.5393 70.5018 49.5091C70.495 49.4927 70.4877 49.4743 70.4796 49.4536ZM71.9838 44.7954L72.0429 44.7891C72.3007 44.7616 72.5595 44.734 72.8183 44.7283C73.3547 44.7165 73.9326 44.8374 74.3163 45.2389C74.9407 45.8916 74.9993 46.9043 74.9981 47.7578C74.9822 58.5816 72.9576 71.3718 64.9202 79.3037C57.7333 86.3949 47.1227 89.5045 37.1882 89.4752C37.1227 89.6368 37.057 89.7985 36.9913 89.9601L36.9847 89.9763C36.4234 91.3573 35.8614 92.7403 35.3664 94.1463C35.2217 94.5571 35.0543 95.1416 34.8723 95.7771C34.4902 97.1113 34.0435 98.6713 33.6072 99.3209C33.201 99.9245 32.5771 100.064 31.9021 100.175C31.6832 100.149 31.4713 100.111 31.2609 100.045C30.7503 99.8829 30.2794 99.5518 30.0482 99.0582C29.2489 97.3499 31.547 91.5739 32.5358 89.0889C32.6262 88.8616 32.7057 88.6618 32.7709 88.4952C32.195 86.8176 31.7954 85.1315 31.5971 83.3674C30.6939 75.3338 33.4285 67.1755 38.4337 60.9034C46.2209 51.1443 59.9363 46.189 71.9838 44.7954Z" fill="#030A06"/>
<path d="M72.0433 44.7891L71.9843 44.7954C59.9368 46.189 46.2214 51.1443 38.4342 60.9034C33.429 67.1755 30.6944 75.3338 31.5976 83.3674C31.7959 85.1315 32.1955 86.8176 32.7713 88.4952C32.7062 88.6618 32.6267 88.8616 32.5363 89.0889C31.5475 91.5739 29.2494 97.3499 30.0487 99.0582C30.2799 99.5518 30.7508 99.8829 31.2614 100.045C31.4718 100.111 31.6837 100.149 31.9026 100.175C32.5776 100.064 33.2014 99.9245 33.6077 99.3209C34.044 98.6713 34.4905 97.1122 34.8726 95.778C35.0547 95.1421 35.2222 94.5573 35.3669 94.1463C35.8619 92.7402 36.4239 91.3574 36.9852 89.9763C36.9874 89.9709 36.9896 89.9655 36.9918 89.9601C37.0575 89.7985 37.1232 89.6368 37.1887 89.4752C47.1232 89.5045 57.7338 86.3949 64.9207 79.3037C72.9581 71.3718 74.9827 58.5816 74.9986 47.7578C74.9998 46.9043 74.9412 45.8916 74.3168 45.2389C73.9331 44.8374 73.3552 44.7165 72.8188 44.7283C72.56 44.734 72.3012 44.7616 72.0433 44.7891ZM70.281 49.4421L70.4801 49.4536C70.4882 49.4743 70.4955 49.4927 70.5023 49.5091C70.5148 49.5395 70.5254 49.5634 70.5341 49.5834C70.5706 49.6662 70.5772 49.6813 70.5754 49.8145C70.5119 58.4966 68.1879 69.6745 62.0261 76.0329C56.32 81.9211 47.4591 84.8105 39.3785 84.9705C43.1423 77.8915 49.1905 71.178 55.4293 66.1918C56.3941 65.4213 57.4041 64.7249 58.4148 64.028C59.0655 63.5793 59.7165 63.1304 60.3558 62.6615C60.9765 62.206 61.8123 61.588 61.9003 60.7574C61.9809 59.9924 61.574 59.3987 61.0951 58.8522C60.4243 58.4633 59.9331 58.3011 59.167 58.5259C58.0794 58.8451 56.9834 59.6498 55.9942 60.376C55.7322 60.5684 55.4775 60.7555 55.2326 60.9263C47.2331 66.5909 40.5861 73.9548 35.7677 82.4902C35.6052 75.5459 37.1865 69.7286 41.4454 64.1428C47.8367 55.76 60.0699 50.8333 70.281 49.4421Z" fill="#030A06"/>
<path d="M227.168 74.2102C226.866 65.6766 219.705 59.0038 211.173 59.3037C202.638 59.6022 195.963 66.7658 196.264 75.2994C196.565 83.8343 203.729 90.5085 212.262 90.2073C220.796 89.9046 227.469 82.7424 227.168 74.2102ZM211.71 63.9426C214.2 64.0435 216.217 64.6419 218.115 66.3227C220.376 68.3239 221.637 71.2152 221.802 74.2101C221.968 77.2078 221.025 80.2464 218.984 82.4793C217.12 84.52 214.794 85.4333 212.069 85.5697C209.582 85.5438 207.531 85.1566 205.569 83.5249C203.278 81.6191 201.983 78.7973 201.739 75.8528C201.486 72.7911 202.288 69.6257 204.321 67.2769C206.337 64.9486 208.718 64.1471 211.71 63.9426Z" fill="#030A06"/>
<path d="M184.197 72.9295C183.18 64.4436 175.469 58.3951 166.986 59.4284C158.525 60.459 152.496 68.1447 153.51 76.6074C154.525 85.0701 162.199 91.1131 170.664 90.1153C179.151 89.1133 185.214 81.414 184.197 72.9295ZM167.481 64.0673C169.956 63.8656 172.199 64.126 174.289 65.5641C176.636 67.1782 178.112 69.6715 178.6 72.4564C179.154 75.6191 178.634 79.0011 176.731 81.6362C175.065 83.9441 172.984 85.0892 170.211 85.5308C167.678 85.6604 165.441 85.5063 163.308 83.9972C161.007 82.3764 159.457 79.8968 159.008 77.1186C158.491 74.0541 159.11 70.5275 160.939 67.9784C162.547 65.7386 164.792 64.4968 167.481 64.0673Z" fill="#030A06"/>
<path d="M259.582 59.2854C259.505 59.2882 259.43 59.2936 259.354 59.3032C255.462 59.7626 251.957 61.6465 249.51 64.7355C246.718 68.2621 245.76 72.7333 246.311 77.1555C246.762 81.0393 248.75 84.5808 251.829 86.9923C255.477 89.8264 260.102 90.5462 264.609 89.93C267.217 89.5729 271.136 88.3242 272.803 86.154C273.272 85.5446 273.508 84.8003 273.4 84.0315C273.324 83.4917 273.087 82.975 272.642 82.6438C272.131 82.2634 271.45 82.2157 270.843 82.3343C270 82.4987 269.244 83.0201 268.527 83.5147C268.376 83.6189 268.226 83.7219 268.078 83.8202C264.931 85.456 261.44 86.2249 257.977 85.103C255.514 84.2918 253.479 82.5238 252.334 80.1955C251.736 79.0054 251.439 77.7417 251.175 76.4453H266.03C266.648 76.4461 267.311 76.4673 267.993 76.4892C269.754 76.5457 271.64 76.6061 273.194 76.3281C273.637 76.249 274.06 76.0118 274.382 75.6983C275.112 74.9867 275.242 73.9793 275.22 73.0073C275.137 69.2858 273.389 65.6147 270.682 63.0969C267.556 60.1892 263.786 59.0959 259.582 59.2854ZM260.04 63.9353C262.294 63.6708 264.568 64.2461 266.426 65.5534C268.647 67.132 269.814 69.3731 270.281 72.0109C268.398 72.0336 266.513 72.0284 264.628 72.0233C263.686 72.0207 262.743 72.0181 261.802 72.0191L251.355 72.0327C251.833 70.4255 252.388 68.9655 253.416 67.6187C255.072 65.4498 257.365 64.287 260.04 63.9353Z" fill="#030A06"/>
<path d="M176.848 48.2371C182.424 48.1049 188.03 48.2276 193.609 48.218C196.787 48.2126 200.846 47.9549 203.931 48.2725C204.427 48.3243 204.823 48.4648 205.2 48.7947C205.737 49.2636 206.095 49.9711 206.114 50.6881C206.13 51.3357 205.733 52.0786 205.266 52.5135C204.909 52.8433 204.483 52.9756 204.013 53.0519C202.729 53.2591 201.311 53.1378 200.008 53.1364L193.086 53.1242L193.083 78.8149C193.093 80.9797 193.367 85.7018 193.041 87.5434C192.938 88.1214 192.729 88.6981 192.33 89.1411C191.902 89.6168 191.312 89.8568 190.677 89.8704C190.012 89.8854 189.363 89.7395 188.883 89.2556C188.319 88.6899 188.111 87.857 188.042 87.084C187.914 85.6581 188.031 84.1491 188.047 82.7164C188.072 80.5966 188.053 78.4755 188.051 76.3557L188.068 53.1201C185.765 53.131 177.796 53.4977 176.165 52.7575C175.568 52.4875 175.194 52.0704 174.978 51.4502C174.747 50.7904 174.852 50.087 175.186 49.4817C175.576 48.7728 176.097 48.4688 176.848 48.2371Z" fill="#030A06"/>
<path d="M140.377 59.3041C142.448 59.1869 144.472 59.3191 146.483 59.8576C148.606 60.426 151.854 61.6788 152.952 63.6936C153.254 64.2484 153.411 64.9123 153.198 65.5258C152.98 66.1515 152.386 66.6299 151.787 66.8753C150.041 67.591 147.854 65.1849 146.211 64.5661C143.54 63.5587 140.327 63.6146 137.727 64.8278C135.339 65.9429 133.622 68.0545 132.733 70.5069C131.701 73.3532 131.614 77.0652 132.924 79.8393C134.139 82.4103 136.374 84.207 139.025 85.1435C142.059 86.2163 145.219 85.6451 148.054 84.286C148.933 83.8103 149.73 83.1764 150.731 82.9692C151.249 82.8628 151.759 82.9187 152.2 83.2241C152.743 83.6003 153.182 84.3446 153.254 85.0017C153.322 85.6179 153.082 86.1849 152.7 86.658C151.041 88.7137 147.35 89.747 144.837 90.055C140.477 90.5894 135.935 89.7156 132.445 86.9333C129.165 84.3692 127.078 80.574 126.669 76.4313C126.237 72.3035 127.448 68.1717 130.039 64.93C132.665 61.7006 136.249 59.7458 140.377 59.3041Z" fill="#030A06"/>
<path d="M233.509 51.505C233.596 51.5009 233.682 51.4968 233.768 51.4941C234.541 51.4696 235.318 51.6768 235.864 52.2466C237.168 53.6084 236.65 58.1969 236.635 60.0754C238.409 60.0863 242.728 59.5342 244.059 60.7175C244.54 61.1469 244.736 61.7413 244.737 62.3751C244.74 62.9899 244.581 63.5788 244.124 64.0123C242.881 65.1901 238.392 64.7267 236.632 64.7157C236.648 68.4891 236.138 80.1198 237.301 82.9825C239.181 87.6119 243.256 83.5401 245.58 84.6347C246.077 84.8692 246.485 85.364 246.669 85.8793C246.931 86.6127 246.698 87.2684 246.396 87.9418C246.345 87.9991 246.293 88.055 246.241 88.1109C244.837 89.5736 242.199 89.9253 240.262 89.9525C238.014 89.9852 235.889 89.6036 234.229 87.9405C233.029 86.7381 232.283 85.0887 231.918 83.4474C231.354 80.9118 231.587 78.105 231.588 75.5191L231.595 64.7198C230.232 64.7185 228.867 64.7089 227.504 64.6871C227.279 64.5467 227.06 64.4022 226.862 64.2236C226.323 63.7383 226.078 63.0145 226.059 62.3015C226.043 61.7044 226.225 61.1155 226.671 60.7025C227.772 59.6828 230.195 60.0482 231.595 60.0727C231.591 58.1083 231.16 54.5858 231.902 52.8573C232.231 52.0898 232.77 51.8118 233.509 51.505Z" fill="#030A06"/>
<path fill-rule="evenodd" clip-rule="evenodd" d="M125.356 50.7681C123.007 50.5372 111.51 50.619 107.522 50.6776C106.788 50.6884 106.108 50.7385 105.511 50.7825C105.003 50.8199 104.554 50.8529 104.184 50.8535C104.184 50.8535 102.597 51.226 102.082 51.941C101.746 52.4092 101.631 53.0033 101.551 53.5625C101.125 56.5324 100.875 59.5626 100.627 62.5826C100.496 64.1721 100.365 65.7588 100.209 67.3324L98.6966 82.599C98.6565 83.007 98.5867 83.5641 98.5074 84.1966C98.2512 86.2414 97.8963 89.0739 98.1259 90.2013C98.2529 90.8261 98.584 91.3422 99.1365 91.6679C99.6816 91.9893 100.299 92.1721 100.92 92.2773L100.926 92.2773C102.208 92.2747 104.142 92.2947 106.304 92.3171C110.784 92.3635 122.178 92.4199 124.827 92.306C125.356 92.2828 125.916 92.2378 126.414 92.0497C127.082 91.7961 127.632 91.3122 127.896 90.6388C128.163 89.9613 128.104 89.202 127.802 88.5476C127.498 87.8878 127.088 87.5361 126.4 87.3153H103.499C103.881 83.9436 104.223 80.5679 104.524 77.1882L104.794 74.441L104.82 74.1687C104.999 74.171 105.235 74.1745 105.515 74.1788C107.847 74.214 119.2 74.2957 120.646 74.0801C121.177 74.001 121.673 73.8674 122.062 73.4762C122.564 72.969 122.773 72.2684 122.732 71.565C122.696 70.9679 122.432 70.3176 121.978 69.9155C121.675 69.6483 121.3 69.4752 120.899 69.4193C119.547 69.2226 109.454 69.2759 106.906 69.3086C106.223 69.3174 105.655 69.3247 105.288 69.3252L106.449 55.6292H118.807C119.438 55.6296 120.094 55.6506 120.76 55.672C122.373 55.7236 124.045 55.7772 125.545 55.5447C126.078 55.4629 126.536 55.2803 126.923 54.8917C127.397 54.416 127.656 53.6962 127.619 53.0283C127.582 52.3467 127.215 51.6978 126.682 51.2793C126.276 50.9603 125.865 50.8172 125.356 50.7681Z" fill="#030A06"/>
</svg>



